<svg width="20" height="20" viewBox="0 0 20 20" fill="none" xmlns="http://www.w3.org/2000/svg">
<path fill-rule="evenodd" clip-rule="evenodd" d="M11.6889 3.74825C12.0221 3.83831 12.2192 4.18144 12.1291 4.51466L9.07598 15.8114C8.9859 16.1447 8.64282 16.3417 8.30956 16.2517C7.97633 16.1617 7.77922 15.8185 7.86927 15.4852L10.9225 4.18853C11.0125 3.85531 11.3556 3.65818 11.6889 3.74825ZM13.508 6.13874C13.7416 5.88465 14.137 5.86806 14.3911 6.1017L18.1302 9.53982C18.259 9.65824 18.3322 9.82507 18.3322 9.99991C18.3322 10.1748 18.259 10.3417 18.1302 10.46L14.3911 13.8982C14.137 14.1317 13.7416 14.1152 13.508 13.8611C13.2743 13.607 13.2909 13.2117 13.545 12.978L16.7838 9.99991L13.545 7.02185C13.2909 6.78821 13.2743 6.39283 13.508 6.13874ZM6.49012 6.13886C6.72375 6.39295 6.70717 6.78832 6.45307 7.02196L3.21423 9.99999L6.45307 12.9781C6.70717 13.2117 6.72375 13.6071 6.49012 13.8612C6.25648 14.1153 5.8611 14.1319 5.60701 13.8982L1.8678 10.4601C1.73908 10.3417 1.66583 10.1749 1.66583 9.99999C1.66583 9.82516 1.73909 9.65832 1.86781 9.53991L5.60701 6.1018C5.8611 5.86817 6.25648 5.88476 6.49012 6.13886Z" fill="#989898"/>
</svg>
