<svg width="14" height="11" viewBox="0 0 14 11" fill="none" xmlns="http://www.w3.org/2000/svg">
<path fill-rule="evenodd" clip-rule="evenodd" d="M6.66665 0.203674C6.94278 0.203674 7.16665 0.427534 7.16665 0.703674V6.41171L9.06785 4.65265C9.27052 4.46511 9.58685 4.47738 9.77439 4.68011C9.96198 4.88278 9.94965 5.19911 9.74699 5.38665L7.00625 7.92251C6.81459 8.09985 6.51872 8.09985 6.32712 7.92251L3.58636 5.38665C3.38366 5.19911 3.37138 4.88278 3.55892 4.68011C3.74646 4.47738 4.06281 4.46511 4.2655 4.65265L6.16665 6.41171V0.703674C6.16665 0.427534 6.39052 0.203674 6.66665 0.203674ZM0.499985 3.6296C0.776125 3.6296 0.999985 3.85346 0.999985 4.1296C0.999985 7.25925 3.53704 9.79625 6.66665 9.79625C9.79625 9.79625 12.3333 7.25925 12.3333 4.1296C12.3333 3.85346 12.5572 3.6296 12.8333 3.6296C13.1095 3.6296 13.3333 3.85346 13.3333 4.1296C13.3333 7.81151 10.3485 10.7962 6.66665 10.7962C2.98475 10.7962 -1.52588e-05 7.81151 -1.52588e-05 4.1296C-1.52588e-05 3.85346 0.223845 3.6296 0.499985 3.6296Z" fill="#989898"/>
</svg>
