<svg width="16" height="16" viewBox="0 0 16 16" fill="none" xmlns="http://www.w3.org/2000/svg">
<path fill-rule="evenodd" clip-rule="evenodd" d="M6.53754 2.33333C5.44066 2.33333 4.55146 3.22253 4.55146 4.31941C4.55146 5.41629 5.44065 6.30549 6.53753 6.30549C7.63439 6.30549 8.52359 5.41629 8.52359 4.31941C8.52359 3.22253 7.63439 2.33333 6.53754 2.33333ZM3.62157 3.67316C3.91689 2.33468 5.11027 1.33333 6.53754 1.33333C7.96479 1.33333 9.15819 2.33468 9.45352 3.67316L13.1183 3.67317C13.3945 3.67317 13.6183 3.89702 13.6183 4.17317C13.6183 4.44931 13.3945 4.67317 13.1183 4.67317L9.50285 4.67316C9.32792 6.15559 8.06699 7.30547 6.53753 7.30547C5.00807 7.30547 3.74717 6.15559 3.57219 4.67317L2.8815 4.67316C2.60535 4.67316 2.3815 4.44931 2.3815 4.17316C2.3815 3.89702 2.60535 3.67316 2.8815 3.67316H3.62157ZM9.46239 9.69453C8.36552 9.69453 7.47632 10.5837 7.47632 11.6806C7.47632 12.7775 8.36552 13.6667 9.46239 13.6667C10.5593 13.6667 11.4485 12.7775 11.4485 11.6806C11.4485 10.5837 10.5593 9.69453 9.46239 9.69453ZM6.49704 11.3269C6.67199 9.8444 7.93292 8.69453 9.46239 8.69453C10.9919 8.69453 12.2528 9.8444 12.4277 11.3269H13.1183C13.3945 11.3269 13.6183 11.5507 13.6183 11.8269C13.6183 12.103 13.3945 12.3269 13.1183 12.3269H12.3783C12.0831 13.6653 10.8897 14.6667 9.46239 14.6667C8.03512 14.6667 6.84172 13.6653 6.54643 12.3269H2.88155C2.60541 12.3269 2.38155 12.103 2.38155 11.8269C2.38155 11.5507 2.60541 11.3269 2.88155 11.3269H6.49704Z" fill="#111111"/>
</svg>
