<svg width="18" height="12" viewBox="0 0 18 12" fill="none" xmlns="http://www.w3.org/2000/svg">
<path fill-rule="evenodd" clip-rule="evenodd" d="M6.03177 1.96753C5.1455 1.96753 4.42703 2.686 4.42703 3.57226C4.42703 4.45852 5.1455 5.17702 6.03177 5.17702C6.91803 5.17702 7.63652 4.45852 7.63652 3.57226C7.63652 2.686 6.91803 1.96753 6.03177 1.96753ZM3.17703 3.57226C3.17703 1.99564 4.45514 0.717529 6.03177 0.717529C7.60836 0.717529 8.88652 1.99564 8.88652 3.57226C8.88652 5.14885 7.60836 6.42702 6.03177 6.42702C4.45514 6.42702 3.17703 5.14885 3.17703 3.57226ZM12.1856 1.96753C11.2994 1.96753 10.5809 2.686 10.5809 3.57226C10.5809 4.45852 11.2994 5.17702 12.1856 5.17702C13.0719 5.17702 13.7904 4.45852 13.7904 3.57226C13.7904 2.686 13.0719 1.96753 12.1856 1.96753ZM9.33086 3.57226C9.33086 1.99564 10.6089 0.717529 12.1856 0.717529C13.7622 0.717529 15.0404 1.99564 15.0404 3.57226C15.0404 5.14885 13.7622 6.42702 12.1856 6.42702C10.6089 6.42702 9.33086 5.14885 9.33086 3.57226ZM5.92329 8.12802C4.08367 8.12802 2.5093 9.27019 1.87346 10.8863C1.74709 11.2075 1.38425 11.3654 1.06303 11.239C0.741823 11.1127 0.583873 10.7499 0.710248 10.4286C1.52781 8.35061 3.55282 6.87802 5.92329 6.87802C7.06008 6.87802 8.11744 7.21669 9.00027 7.79844C9.88336 7.21677 10.9414 6.87802 12.0771 6.87802C14.4476 6.87802 16.4726 8.35061 17.2902 10.4286C17.4165 10.7499 17.2586 11.1127 16.9374 11.2391C16.6162 11.3654 16.2534 11.2075 16.1269 10.8863C15.4911 9.27019 13.9167 8.12802 12.0771 8.12802C11.3284 8.12802 10.6247 8.31677 10.01 8.64944C10.4901 9.16177 10.8749 9.76427 11.1364 10.4286C11.2627 10.7499 11.1048 11.1127 10.7835 11.239C10.4624 11.3654 10.0995 11.2075 9.97311 10.8863C9.33727 9.27019 7.76294 8.12802 5.92329 8.12802Z" fill="#989898"/>
</svg>
